<svg width="13" height="17" viewBox="0 0 13 17" fill="none" xmlns="http://www.w3.org/2000/svg">
<path fill-rule="evenodd" clip-rule="evenodd" d="M12.8945 4.85428L0.0505323 4.82628C0.0505323 4.82628 0.0125323 4.41428 0.000532316 3.91628C-0.0194677 3.01028 0.524533 2.36428 1.56053 2.32828C1.70253 2.32828 2.52453 2.32828 3.63453 2.32828C3.62253 2.06028 3.60653 1.66828 3.60053 1.36828C3.57853 0.462281 4.12453 0.0402812 5.15853 0.00428118C5.65053 -0.0117188 7.35853 0.0222812 7.97253 0.0222812C9.08653 0.0222812 9.52653 0.460281 9.53253 1.19028C9.53253 1.51228 9.51853 2.01828 9.50653 2.34428H11.2345C12.3485 2.34428 12.9265 3.00628 12.9325 3.74428C12.9365 4.24428 12.8945 4.85428 12.8945 4.85428ZM7.95653 1.53228L5.15653 1.50428V2.33228H7.95653V1.53228ZM11.5245 16.8283L1.52453 16.9183L0.840533 6.03228H12.1425L11.5245 16.8283Z" fill="#FF0000"/>
</svg>
